<?xml version="1.0" standalone="no"?>
<!DOCTYPE svg PUBLIC "-//W3C//DTD SVG 20010904//EN"
  "http://www.w3.org/TR/2001/REC-SVG-20010904/DTD/svg10.dtd">
<svg version="1.0" xmlns="http://www.w3.org/2000/svg"
     width="2061.000000pt" height="2040.000000pt" viewBox="0 0 2061.000000 2040.000000"
     preserveAspectRatio="xMidYMid meet">

  <g transform="translate(-400.00000,2400.000000) scale(0.140000,-0.140000)"
     fill="black" stroke="none">
    <path d="M15435 17190 c-11 -5 -65 -27 -120 -48 -166 -66 -406 -188 -563 -288
-476 -299 -866 -696 -1149 -1170 -82 -137 -92 -169 -40 -131 90 69 310 149
442 162 33 3 77 8 98 11 20 3 37 2 37 -3 0 -5 -39 -56 -87 -115 -49 -58 -140
-169 -203 -246 -63 -77 -158 -193 -210 -258 -52 -64 -115 -140 -140 -168 -25
-28 -85 -102 -135 -164 -49 -61 -95 -112 -101 -112 -6 0 -31 14 -55 32 -318
231 -783 482 -1171 634 -445 174 -850 278 -1373 351 -184 26 -204 27 -670 27
-264 1 -516 0 -560 -2 -44 -1 -93 0 -110 2 -35 6 -100 -7 -170 -33 -44 -16
-211 -50 -330 -67 -156 -22 -655 -170 -915 -271 -323 -125 -779 -363 -1063
-555 -90 -61 -307 -217 -317 -228 -3 -3 -41 -35 -85 -70 -217 -176 -423 -368
-583 -542 -128 -142 -349 -406 -399 -479 -16 -24 -70 -102 -119 -174 -352
-514 -608 -1079 -774 -1710 -30 -116 -96 -452 -114 -580 -45 -330 -60 -872
-32 -1205 28 -329 42 -426 111 -750 58 -273 174 -635 291 -910 60 -142 234
-493 304 -615 133 -231 391 -595 568 -805 89 -105 336 -359 510 -524 l112
-106 -54 -73 c-31 -39 -126 -164 -211 -277 -86 -113 -228 -300 -315 -416 -87
-116 -162 -214 -166 -217 -5 -2 -56 4 -114 15 -139 26 -365 20 -484 -11 -102
-27 -223 -85 -231 -111 -3 -10 -16 -22 -28 -26 -23 -7 -91 -55 -117 -83 -8 -9
-60 -52 -115 -96 -105 -83 -353 -325 -446 -435 -187 -220 -422 -591 -455 -717
-8 -31 -11 -60 -7 -63 4 -4 37 -18 73 -30 55 -19 92 -23 251 -27 202 -6 267 4
410 61 35 14 71 26 79 28 13 3 16 -24 21 -177 3 -99 11 -202 18 -230 7 -27 17
-70 23 -95 21 -92 114 -299 164 -365 15 -19 16 -19 51 20 19 22 117 123 217
225 100 102 218 228 261 280 44 52 82 97 85 100 21 18 152 196 228 310 111
167 215 347 293 507 59 121 59 122 59 212 0 116 -14 219 -50 359 -39 151 -76
241 -112 274 -36 32 -35 37 31 120 28 35 142 178 253 318 216 272 413 520 439
552 16 20 16 20 50 -9 111 -97 382 -289 634 -449 113 -71 637 -339 705 -359
14 -4 57 -23 97 -41 40 -19 75 -34 78 -34 4 0 68 -22 143 -49 605 -216 1218
-320 1888 -321 287 0 436 9 679 39 83 11 177 22 210 26 104 12 498 99 642 141
48 15 123 37 165 49 112 33 331 114 543 203 57 24 382 183 452 221 491 269
1013 668 1362 1041 506 541 887 1140 1137 1785 145 373 242 729 303 1110 58
358 65 456 65 870 1 408 -7 511 -61 835 -14 85 -29 181 -34 212 -13 89 -106
449 -151 588 -189 585 -471 1132 -834 1620 -245 330 -673 771 -985 1015 -21
17 -38 35 -39 41 0 5 33 48 73 95 65 77 189 229 580 707 70 86 154 190 185
229 32 41 64 72 72 70 20 -3 110 -184 143 -288 46 -144 59 -224 58 -377 l0
-143 37 32 c109 95 315 343 428 514 326 498 504 1082 504 1658 0 156 0 157
-22 156 -13 0 -32 -4 -43 -9z m-4885 -1600 c234 -27 220 -22 220 -82 l0 -50
-62 6 c-35 3 -182 8 -328 12 l-265 6 -170 53 c-93 29 -181 57 -195 62 -82 27
550 21 800 -7z m-1065 -25 c50 -14 133 -37 185 -51 141 -38 141 -46 -5 -59
-112 -10 -495 -64 -507 -71 -18 -11 -28 18 -28 82 0 80 14 92 122 109 118 18
133 18 233 -10z m-453 -123 c3 -76 2 -83 -17 -87 -206 -44 -590 -155 -740
-214 -44 -18 -91 -32 -105 -33 -14 0 -59 11 -100 26 -41 14 -108 34 -149 44
l-75 18 85 34 c46 18 102 41 124 50 49 21 383 129 421 136 15 3 63 15 108 28
141 40 427 97 438 87 3 -3 8 -43 10 -89z m2018 53 c261 -56 577 -148 803 -233
76 -29 92 -48 20 -25 -113 36 -188 56 -348 93 -209 48 -306 68 -365 75 -152
18 -276 39 -282 49 -4 6 -8 24 -8 39 l0 29 58 -7 c31 -3 86 -13 122 -20z
m-856 -150 c132 -47 477 -184 641 -255 l130 -57 53 -74 c29 -41 88 -121 130
-179 42 -58 78 -108 80 -111 1 -4 -35 -10 -80 -13 -46 -4 -148 -16 -228 -26
-80 -11 -172 -22 -206 -25 -110 -11 -464 -79 -679 -132 l-140 -34 -153 157
c-84 86 -201 213 -260 281 -112 131 -252 312 -252 326 0 5 -9 20 -20 34 -26
33 -25 51 3 58 52 12 537 71 637 78 194 12 239 8 344 -28z m413 25 c204 -16
188 -10 230 -95 21 -41 34 -77 31 -80 -3 -4 -53 14 -110 38 -56 25 -152 64
-213 87 -169 65 -166 68 62 50z m488 -56 c123 -15 502 -99 670 -149 128 -37
431 -139 490 -165 l50 -22 -26 -13 c-14 -8 -61 -28 -104 -45 -43 -17 -110 -46
-149 -64 -39 -18 -116 -52 -171 -75 l-100 -42 -140 77 c-77 42 -237 125 -356
185 l-217 108 -35 58 c-45 75 -77 139 -77 154 0 11 33 10 165 -7z m-1989 -101
c106 -186 316 -442 572 -700 51 -52 90 -98 87 -103 -3 -4 -82 30 -176 76 -93
46 -172 84 -174 84 -2 0 -50 22 -107 49 -231 109 -352 163 -518 231 -191 79
-304 126 -335 140 -11 5 -46 19 -78 31 -33 12 -55 24 -50 28 24 22 385 133
598 184 147 36 149 36 181 -20z m-1107 -159 c9 -3 11 -8 5 -13 -11 -11 -291
-141 -302 -141 -5 0 -25 30 -45 67 -27 47 -34 70 -27 77 18 19 319 27 369 10z
m-444 -110 c26 -47 44 -91 41 -99 -2 -7 -24 -22 -48 -33 -105 -46 -459 -274
-667 -430 -69 -52 -129 -96 -133 -98 -11 -7 -213 114 -213 127 0 19 416 329
440 329 3 0 32 17 63 38 127 86 450 264 463 256 4 -2 28 -43 54 -90z m646 35
c19 -6 48 -17 64 -24 17 -7 93 -38 170 -68 78 -30 162 -64 187 -76 26 -11 50
-21 54 -21 4 0 30 -11 58 -24 28 -13 139 -62 246 -109 396 -172 627 -284 614
-297 -8 -7 -108 -40 -159 -53 -31 -8 -356 -126 -390 -141 -16 -8 -66 -29 -110
-46 -139 -55 -286 -121 -417 -186 -70 -35 -132 -64 -138 -64 -34 0 -620 877
-620 929 0 6 15 18 33 28 38 20 359 162 368 162 3 1 21 -4 40 -10z m4284 -74
c124 -54 487 -234 522 -260 10 -8 15 -16 12 -19 -3 -4 -84 3 -180 14 -302 34
-406 41 -711 47 -217 4 -298 9 -298 18 0 12 484 254 511 254 9 1 74 -24 144
-54z m-1122 -69 c100 -51 200 -104 222 -117 l40 -24 -50 -7 c-27 -3 -88 -7
-136 -7 l-85 -1 -55 72 c-29 39 -71 92 -91 117 -36 43 -45 61 -32 61 3 0 87
-42 187 -94z m-3674 -129 c26 -45 158 -258 242 -392 49 -77 131 -195 272 -390
37 -51 67 -99 67 -107 0 -8 -21 -24 -46 -36 -26 -13 -102 -56 -170 -97 -68
-41 -126 -75 -128 -75 -3 0 -107 61 -233 136 -125 75 -250 147 -278 161 -27
14 -65 36 -85 48 -19 13 -71 43 -115 67 -262 141 -355 194 -355 204 0 6 51 49
113 96 177 134 290 208 627 406 51 29 62 27 89 -21z m4225 -182 c251 -148 734
-481 718 -497 -6 -6 -52 -25 -103 -43 -52 -18 -147 -54 -212 -79 -66 -25 -124
-46 -130 -46 -16 0 -180 142 -341 293 -166 156 -357 363 -350 380 3 8 24 23
47 35 35 17 61 21 151 21 l109 1 111 -65z m621 45 c99 -9 273 -27 519 -55 45
-5 52 -10 39 -27 -31 -41 -278 -343 -306 -373 l-33 -36 -93 68 c-201 147 -401
283 -553 378 -43 27 -78 53 -78 58 0 12 313 3 505 -13z m-1208 -17 c3 -7 -90
-59 -224 -127 -189 -96 -527 -278 -651 -351 -30 -18 -31 -18 -104 19 -188 97
-235 127 -298 191 -51 51 -62 68 -51 75 38 23 622 137 791 154 30 3 111 13
180 21 300 37 350 40 357 18z m86 -94 c54 -76 374 -393 590 -583 37 -33 64
-63 60 -67 -5 -4 -66 -33 -138 -64 -71 -32 -223 -105 -338 -163 l-208 -105
-42 23 c-23 13 -101 62 -174 109 -72 48 -242 151 -377 231 -134 80 -245 148
-245 152 -1 7 211 138 223 138 4 0 30 15 59 34 28 18 156 91 282 161 127 70
239 134 250 141 28 18 42 17 58 -7z m1959 -140 c95 -168 290 -565 362 -740 73
-178 189 -514 184 -531 -2 -5 -48 37 -103 94 -213 221 -576 552 -785 717 -117
92 -118 89 74 326 87 108 165 203 174 211 22 22 50 -1 94 -77z m-3469 -101
c134 -67 147 -77 235 -167 50 -52 92 -98 92 -101 -1 -3 -44 -32 -98 -65 -176
-108 -224 -139 -467 -300 -219 -147 -385 -264 -583 -413 l-73 -55 -83 89
c-102 110 -215 238 -285 324 -30 36 -57 67 -61 70 -18 13 -130 163 -130 174 0
17 351 187 555 268 218 87 690 247 733 248 13 0 87 -32 165 -72z m646 -355
c308 -176 706 -427 706 -444 0 -10 -166 -119 -183 -119 -13 0 -652 609 -652
622 0 14 10 10 129 -59z m2054 25 c-66 -86 -176 -218 -181 -218 -14 0 -127 99
-127 110 0 7 65 36 145 65 153 57 179 63 163 43z m265 -30 c16 -20 41 -115 83
-318 42 -200 45 -230 27 -230 -11 0 -146 80 -300 179 -49 31 -86 61 -84 67 7
18 249 314 257 314 3 0 11 -6 17 -12z m-2455 -81 c95 -97 465 -450 520 -497
20 -18 37 -36 37 -40 0 -5 -37 -34 -82 -66 -46 -32 -128 -92 -183 -134 -55
-42 -128 -98 -163 -124 -95 -72 -232 -185 -314 -258 -40 -35 -137 -122 -216
-192 l-143 -127 -70 56 c-38 32 -69 61 -69 66 0 5 -6 9 -14 9 -7 0 -20 8 -27
17 -8 9 -68 63 -134 121 -66 58 -195 174 -288 260 -191 177 -185 157 -72 236
33 23 112 80 175 126 179 131 357 251 715 485 122 80 229 145 238 145 4 0 45
-37 90 -83z m3423 -105 c90 -157 224 -427 292 -587 81 -191 127 -314 119 -321
-3 -3 -28 1 -55 10 -75 25 -106 65 -138 176 -82 286 -182 567 -291 818 -3 6
-1 12 3 12 5 0 36 -49 70 -108z m121 36 c143 -184 348 -494 459 -693 81 -147
168 -324 162 -330 -9 -9 -181 26 -195 39 -7 6 -26 49 -42 96 -72 206 -219 535
-340 760 -101 187 -103 190 -97 190 2 0 26 -28 53 -62z m-5502 -114 c106 -134
219 -269 279 -332 142 -149 186 -198 186 -208 0 -6 -10 -18 -22 -26 -21 -14
-27 -12 -88 27 -36 23 -128 83 -205 132 -77 50 -169 108 -205 130 -131 80
-365 226 -370 230 -3 2 4 10 14 16 46 28 292 165 298 166 3 1 55 -60 113 -135z
m3803 70 c48 -37 88 -70 90 -75 5 -12 -386 -493 -403 -497 -13 -3 -51 21 -144
90 -20 15 -98 69 -173 120 -76 51 -138 99 -138 105 0 21 624 322 668 323 7 0
52 -30 100 -66z m840 10 c187 -158 832 -787 820 -800 -12 -12 -377 141 -603
252 -227 111 -208 95 -224 205 -7 52 -26 158 -42 236 -31 150 -32 163 -23 163
3 0 36 -25 72 -56z m-468 -274 c87 -57 248 -156 331 -203 38 -22 48 -33 54
-63 10 -55 8 -288 -4 -384 -18 -145 -74 -426 -87 -439 -7 -7 -14 -2 -179 139
-171 146 -294 246 -460 373 -66 50 -126 97 -133 104 -7 7 -17 13 -22 13 -21 0
-19 35 3 59 13 14 90 109 172 211 172 215 214 262 229 252 6 -3 49 -31 96 -62z
m1775 -125 c53 -77 132 -198 174 -270 80 -133 191 -336 191 -348 0 -4 -13 -7
-28 -7 -27 0 -33 10 -106 158 -86 174 -230 431 -306 547 -50 74 -63 103 -36
75 8 -8 58 -78 111 -155z m-2933 11 c180 -119 393 -273 393 -284 0 -6 -43 -62
-95 -126 l-94 -114 -41 31 c-148 115 -475 409 -475 428 0 13 203 130 216 125
7 -3 50 -30 96 -60z m-262 -260 c82 -73 203 -178 269 -232 66 -55 120 -104
120 -110 1 -11 -119 -161 -198 -249 -48 -54 -90 -105 -321 -385 -270 -329
-313 -378 -327 -379 -7 -1 -50 28 -95 64 -46 36 -164 126 -263 200 -99 75
-191 145 -205 156 -14 11 -71 54 -127 96 -57 41 -103 80 -103 87 0 27 575 516
794 676 64 47 155 113 202 148 47 34 90 62 95 62 5 0 77 -60 159 -134z m1974
55 c137 -78 430 -207 723 -317 57 -22 105 -46 108 -54 10 -31 94 -479 104
-555 36 -272 63 -746 53 -912 -2 -46 -6 -83 -7 -83 -2 0 -51 28 -110 62 -100
58 -115 71 -248 217 -177 193 -471 488 -650 650 -76 68 -137 132 -137 141 0 9
16 93 35 186 47 232 65 379 65 550 0 79 3 144 6 144 4 0 30 -13 58 -29z
m-4094 -187 l65 -66 -75 47 c-91 58 -94 60 -86 74 13 21 32 10 96 -55z m3049
-86 c269 -201 751 -605 751 -628 0 -9 -8 -43 -19 -76 -10 -32 -22 -72 -25 -88
-5 -20 -12 -27 -25 -23 -9 2 -232 147 -495 321 -329 218 -476 321 -474 332 3
15 178 234 187 234 2 0 47 -32 100 -72z m-6926 -264 l107 -106 -15 -29 c-27
-51 -135 -319 -181 -447 -61 -171 -159 -515 -185 -652 -12 -63 -25 -119 -29
-123 -6 -7 -227 164 -261 204 -16 17 -15 26 11 126 81 318 184 615 306 883 88
194 118 250 132 250 5 0 57 -48 115 -106z m9087 80 c0 -8 -4 -12 -10 -9 -5 3
-10 10 -10 16 0 5 5 9 10 9 6 0 10 -7 10 -16z m-6 -177 c115 -142 106 -121
170 -402 52 -228 74 -363 111 -687 19 -169 30 -414 19 -421 -5 -3 -79 32 -164
76 l-155 82 -6 325 c-8 433 -34 696 -104 1055 -14 72 -25 137 -25 145 1 17 8
9 154 -173z m246 137 c47 -10 90 -21 97 -26 32 -25 273 -694 273 -757 0 -8
-32 32 -72 90 -75 110 -86 124 -249 344 -99 134 -105 145 -136 250 -18 60 -33
111 -33 112 0 7 41 2 120 -13z m-2664 -91 c102 -69 551 -369 751 -501 l172
-113 -15 -42 c-8 -23 -18 -51 -23 -62 -5 -11 -39 -96 -77 -190 -37 -93 -125
-282 -194 -420 -122 -241 -342 -625 -359 -625 -20 0 -388 291 -441 350 -20 21
-187 163 -360 304 -256 210 -291 238 -304 251 -6 6 -28 23 -48 39 -21 16 -38
35 -38 43 0 8 39 62 88 120 77 94 393 481 653 800 74 90 95 110 108 103 9 -5
48 -31 87 -57z m3091 -89 c167 -380 304 -817 368 -1174 14 -80 28 -155 30
-167 8 -37 -9 -26 -33 20 -44 86 -117 214 -178 315 -58 95 -66 116 -99 250
-69 284 -161 569 -259 804 -20 48 -36 90 -36 93 0 3 33 5 72 3 l73 -3 62 -141z
m-9325 -270 c128 -122 270 -257 316 -301 l83 -79 -56 -95 c-139 -232 -303
-599 -397 -884 -22 -66 -41 -121 -43 -124 -2 -2 -40 27 -83 65 -43 38 -165
139 -270 224 -106 85 -192 159 -192 165 0 30 67 326 97 430 19 66 43 149 53
185 51 179 234 644 252 638 3 -2 111 -102 240 -224z m7362 -46 c7 -7 108 -103
224 -212 197 -186 382 -376 367 -376 -8 0 -105 60 -355 219 -91 57 -197 125
-237 150 -45 28 -72 53 -73 64 0 28 43 167 53 167 5 0 14 -6 21 -12z m1604
-46 c266 -379 383 -563 398 -632 33 -142 97 -649 84 -663 -7 -8 -212 58 -318
103 l-67 28 -2 84 c-9 315 -76 849 -140 1106 -8 35 9 25 45 -26z m-1564 -319
c184 -120 497 -317 510 -322 6 -2 63 -37 126 -76 63 -40 136 -84 161 -98 44
-26 97 -84 244 -266 l68 -85 -7 -90 c-17 -227 -29 -315 -82 -581 -59 -299
-162 -675 -185 -675 -25 0 -358 146 -539 236 -262 131 -645 357 -805 475 -22
16 -98 70 -170 120 -71 50 -133 96 -137 103 -4 8 37 86 103 197 136 226 408
773 483 969 30 80 58 153 61 163 4 9 13 17 21 17 7 0 74 -39 148 -87z m-6900
-66 c21 -24 401 -372 644 -591 72 -66 132 -122 132 -126 0 -3 -28 -48 -61
-100 -117 -180 -278 -462 -380 -663 -56 -111 -103 -204 -105 -206 -2 -2 -50
35 -107 82 -57 47 -130 107 -163 134 -32 27 -72 60 -89 75 -42 37 -154 129
-273 223 -55 44 -103 85 -105 90 -6 15 110 355 169 496 71 170 296 609 311
609 3 0 15 -11 27 -23z m-1392 -398 c62 -56 121 -109 130 -118 16 -15 16 -24
-7 -156 -46 -270 -60 -486 -60 -910 0 -254 5 -433 13 -513 7 -68 11 -126 8
-129 -6 -6 -238 151 -276 187 -25 24 -27 31 -39 206 -16 221 -16 612 -1 794 6
74 13 164 16 200 10 148 80 540 95 540 5 0 59 -46 121 -101z m10478 -201 c40
-73 81 -147 91 -165 10 -19 16 -46 14 -68 -4 -35 -28 -85 -43 -85 -4 -1 -26
-5 -49 -9 l-42 -8 -6 66 c-4 36 -15 135 -26 219 -20 159 -22 182 -15 182 2 0
37 -60 76 -132z m-9950 -273 c129 -115 236 -217 238 -226 2 -10 -8 -60 -22
-111 -44 -164 -87 -432 -111 -688 -11 -115 -15 -249 -13 -443 2 -152 0 -277
-4 -277 -4 0 -49 31 -100 69 -51 39 -142 105 -202 148 -122 87 -120 84 -130
220 -4 48 -11 142 -17 208 -15 186 -13 625 6 855 15 194 50 474 62 493 3 5 17
-2 32 -16 14 -13 132 -118 261 -232z m9161 111 l164 -85 -3 -153 c-3 -152 -7
-188 -20 -188 -4 0 -38 46 -77 101 -38 56 -109 155 -157 220 -71 96 -88 126
-88 154 0 19 4 35 8 35 5 0 82 -38 173 -84z m-7314 -136 c115 -109 268 -244
751 -662 19 -16 32 -34 29 -41 -2 -7 -47 -78 -100 -158 -115 -177 -312 -496
-391 -636 -32 -57 -60 -103 -62 -103 -3 0 -40 29 -82 65 -42 36 -207 172 -367
302 -159 131 -306 251 -325 269 -19 17 -48 42 -64 56 l-28 24 95 189 c95 192
246 461 329 590 24 39 61 96 82 128 20 32 41 57 46 55 4 -2 44 -37 87 -78z
m7599 1 c15 -14 151 -62 269 -96 l110 -32 6 -154 c13 -312 -29 -884 -58 -802
-10 28 -265 467 -317 546 l-56 85 10 119 c5 65 10 169 10 231 0 107 4 123 26
103z m-413 -93 c30 -40 101 -143 159 -230 l106 -156 -19 -149 c-35 -264 -38
-286 -64 -403 -14 -63 -32 -146 -41 -185 -21 -96 -44 -174 -53 -179 -13 -8
-385 107 -405 124 -4 5 19 105 53 223 59 209 109 432 150 667 20 115 25 153
37 288 3 39 10 72 15 72 5 0 33 -33 62 -72z m1102 10 c13 -44 18 -649 6 -801
-18 -235 -73 -621 -91 -640 -8 -9 -134 160 -165 222 -13 26 -16 46 -11 80 39
266 48 383 53 729 l6 362 26 0 c44 0 100 20 128 45 35 30 39 30 48 3z m-9535
-428 c129 -113 281 -245 338 -294 56 -48 102 -94 102 -100 0 -7 -31 -89 -69
-182 -68 -168 -163 -443 -216 -624 -47 -162 -95 -354 -95 -381 0 -55 -18 -51
-124 29 -107 81 -108 81 -146 113 -14 12 -62 47 -106 80 l-82 59 -7 107 c-11
159 -9 510 4 653 23 248 92 665 126 759 6 17 -15 34 275 -219z m8907 -307 c61
-104 131 -226 155 -273 24 -47 57 -107 73 -134 28 -48 28 -49 17 -130 -18
-137 -32 -186 -50 -186 -35 1 -454 100 -465 110 -5 4 8 79 29 166 47 204 73
327 80 384 3 25 12 89 20 142 7 54 14 100 14 103 0 24 31 -21 127 -182z
m-1933 -27 c227 -141 594 -325 856 -430 130 -53 135 -55 132 -82 -5 -41 -152
-406 -162 -401 -3 1 -106 106 -229 232 -205 210 -652 651 -731 721 -17 16 -41
41 -52 57 l-20 27 49 -28 c26 -16 97 -59 157 -96z m-4833 57 c12 -14 111 -98
528 -451 63 -54 122 -104 130 -113 9 -8 42 -37 74 -63 31 -27 57 -54 57 -62 0
-7 -31 -50 -70 -96 -38 -46 -177 -213 -308 -373 -131 -159 -246 -296 -255
-304 -12 -9 -21 -10 -29 -4 -79 62 -405 328 -413 337 -5 6 -73 63 -150 125
-77 63 -142 116 -144 118 -18 15 531 903 558 903 5 0 15 -7 22 -17z m-1556
-232 c3 -5 139 -123 303 -262 163 -139 307 -262 320 -273 12 -12 32 -30 45
-42 12 -11 50 -44 85 -73 34 -29 62 -58 62 -64 0 -6 -42 -94 -93 -197 -138
-275 -189 -387 -294 -648 -52 -130 -97 -240 -99 -244 -3 -4 -62 38 -131 95
-69 56 -184 148 -257 205 -72 57 -183 144 -246 195 -63 50 -117 92 -119 93 -8
7 79 332 151 559 59 189 169 494 209 583 16 34 29 67 29 72 0 13 27 13 35 1z
m-1678 -343 c60 -45 57 -40 78 -173 23 -147 81 -428 116 -570 42 -165 172
-577 211 -666 9 -19 46 -106 83 -194 123 -290 290 -602 463 -865 52 -79 78
-129 82 -158 4 -23 4 -41 0 -40 -4 2 -43 46 -86 98 -43 52 -84 101 -91 108 -7
7 -53 68 -101 135 -466 643 -770 1323 -926 2072 -42 201 -77 415 -70 427 3 4
46 -24 97 -63 51 -40 115 -90 144 -111z m9281 -42 c53 -18 140 -46 192 -61 52
-15 99 -31 104 -36 18 -17 -95 -343 -202 -582 l-57 -128 -34 38 c-19 21 -90
98 -159 171 -69 73 -131 140 -138 149 -10 14 -7 27 13 73 20 45 131 324 156
393 8 23 13 22 125 -17z m1108 -164 c-8 -8 -76 8 -76 18 0 5 5 33 11 62 l12
53 29 -64 c15 -35 26 -66 24 -69z m-10013 -96 c100 -79 192 -155 203 -167 15
-17 23 -43 28 -89 47 -474 175 -1010 352 -1478 51 -134 54 -148 54 -232 0 -50
-3 -90 -8 -90 -4 0 -38 53 -76 118 -38 64 -76 128 -86 142 -9 14 -66 124 -127
245 -174 346 -296 666 -396 1031 -63 232 -67 248 -107 457 -30 157 -36 207
-24 207 3 0 87 -65 187 -144z m9423 110 c124 -28 199 -47 264 -69 25 -8 57
-18 72 -21 19 -4 28 -14 33 -34 14 -64 -164 -627 -274 -865 -15 -34 -43 -95
-61 -134 -31 -69 -44 -85 -52 -64 -1 5 -88 107 -193 226 -104 120 -189 223
-188 229 1 6 28 72 61 146 75 171 132 320 185 483 22 70 42 127 42 127 1 0 51
-11 111 -24z m-5458 -168 c75 -61 142 -117 147 -124 9 -10 211 -174 675 -547
74 -60 135 -112 135 -117 0 -8 -309 -253 -429 -339 -187 -136 -412 -290 -422
-291 -10 0 -313 241 -374 298 -14 13 -136 114 -272 224 -137 111 -248 206
-248 212 0 6 31 47 68 91 38 44 144 175 237 290 93 116 197 243 232 284 36 40
74 86 86 102 11 16 22 29 24 29 3 0 66 -50 141 -112z m6090 1 c34 -6 64 -15
67 -18 6 -12 -68 -290 -118 -441 -83 -248 -192 -512 -304 -734 l-49 -98 -70
77 c-38 42 -73 83 -77 91 -5 8 3 34 18 64 75 148 168 379 244 610 81 242 111
350 111 395 0 17 7 41 16 53 17 25 18 25 162 1z m-7663 -230 c99 -83 253 -211
343 -286 89 -75 162 -140 162 -145 0 -5 -39 -57 -87 -116 -114 -140 -290 -353
-350 -423 -27 -31 -102 -122 -167 -202 -65 -81 -123 -147 -128 -147 -9 0 -171
131 -198 161 -8 9 -67 58 -130 109 -63 51 -116 96 -118 100 -3 8 63 187 104
281 13 31 40 97 60 145 81 203 308 674 324 674 3 0 86 -68 185 -151z m-1854
-147 c97 -78 181 -148 189 -156 10 -13 10 -30 -3 -93 -34 -171 -54 -347 -81
-713 -15 -192 -10 -196 -88 60 -78 258 -166 630 -183 770 -3 30 -13 99 -21
152 -18 123 -18 144 -1 131 6 -6 91 -74 188 -151z m532 -437 c399 -329 502
-417 505 -432 2 -8 -14 -68 -36 -132 -63 -180 -148 -454 -182 -586 -17 -66
-37 -142 -45 -170 -13 -43 -101 -428 -120 -523 -4 -18 -10 -30 -15 -27 -30 18
-281 519 -397 789 -68 160 -77 187 -75 236 3 73 29 319 47 450 8 58 17 128 20
155 8 69 22 150 51 288 13 64 24 119 24 122 0 12 22 -5 223 -170z m2067 -35
c19 -19 156 -131 335 -275 116 -92 217 -175 226 -184 9 -9 66 -56 127 -105 62
-49 110 -92 107 -96 -21 -33 -614 -377 -911 -527 l-192 -97 -68 59 c-38 33
-88 78 -110 100 -23 22 -100 90 -172 150 -72 61 -131 114 -131 119 -1 5 32 50
72 100 41 50 143 177 227 281 84 105 169 208 189 230 20 22 83 98 139 169
l104 128 26 -24 c15 -12 29 -25 32 -28z m2047 -137 c88 -71 202 -159 253 -198
51 -38 120 -93 154 -121 33 -28 144 -114 245 -190 101 -76 285 -217 410 -311
124 -95 292 -221 374 -280 81 -59 146 -110 145 -114 -10 -25 -336 -236 -523
-337 -198 -108 -492 -252 -512 -252 -7 0 -220 171 -318 256 -38 33 -180 150
-315 259 -135 110 -249 204 -255 211 -5 6 -134 112 -285 235 -151 122 -288
235 -305 250 -16 15 -46 41 -65 58 -34 30 -34 32 -15 43 105 62 599 423 705
515 65 56 126 102 136 103 6 0 83 -57 171 -127z m-3418 -404 c47 -40 93 -79
101 -88 8 -9 59 -54 113 -100 87 -74 96 -85 85 -101 -7 -9 -69 -85 -138 -167
-69 -83 -170 -206 -225 -273 -55 -68 -124 -151 -154 -184 -29 -34 -92 -109
-140 -169 -47 -59 -87 -101 -89 -93 -2 8 10 70 26 138 17 67 33 139 37 158 23
113 146 543 227 790 42 129 55 160 65 160 3 0 44 -32 92 -71z m2347 -251 c44
-35 87 -70 97 -80 11 -9 75 -61 144 -115 69 -54 187 -147 261 -208 75 -60 215
-170 312 -243 96 -74 198 -154 225 -176 44 -37 148 -118 365 -282 64 -48 100
-80 100 -88 0 -2 -62 -27 -137 -54 -436 -161 -784 -246 -1288 -317 -141 -19
-173 -21 -190 -10 -11 7 -81 72 -155 145 -168 165 -497 470 -737 683 -100 89
-182 167 -182 173 -1 7 23 24 52 39 28 15 94 50 146 77 51 27 137 72 190 100
86 45 413 237 626 368 44 28 83 50 86 50 4 0 42 -28 85 -62z m-1739 -269 c59
-51 142 -122 183 -159 41 -37 91 -81 110 -98 l34 -30 -69 -32 c-244 -111 -598
-260 -750 -316 -49 -18 -139 -51 -199 -73 -60 -23 -111 -39 -114 -37 -4 4 310
397 346 434 9 10 87 104 172 210 85 105 160 192 166 192 7 0 61 -41 121 -91z
m-1643 -131 c16 -35 44 -97 63 -138 19 -41 43 -91 54 -111 33 -63 21 -64 -24
-3 -126 172 -137 192 -137 255 0 33 4 59 8 59 4 0 21 -28 36 -62z m2349 -483
c161 -140 404 -355 541 -477 l250 -222 -35 -8 c-42 -10 -596 -12 -769 -3 -148
7 -380 36 -578 70 -78 14 -161 28 -185 31 -166 23 -907 242 -907 268 0 36 28
49 310 148 63 22 232 86 375 143 247 98 335 136 590 254 61 27 111 50 113 51
1 0 134 -115 295 -255z m3923 154 c187 -135 184 -133 184 -141 0 -11 -193
-138 -330 -217 -204 -118 -717 -361 -763 -361 -10 0 -81 55 -121 94 -11 12
-51 45 -89 75 -37 30 -64 58 -60 61 5 4 33 17 63 30 198 82 574 293 810 453
85 58 158 106 161 106 3 1 69 -44 145 -100z m-6202 -60 c54 -73 94 -130 88
-128 -6 2 -54 51 -107 108 -63 70 -95 112 -95 128 0 12 3 23 8 23 4 0 51 -59
106 -131z m6574 -211 c287 -203 441 -314 441 -320 2 -19 -367 -263 -549 -362
-47 -26 -92 -51 -100 -55 -37 -21 -241 -122 -292 -145 -32 -14 -83 -37 -114
-51 l-56 -26 -47 38 c-25 21 -80 67 -122 103 -41 36 -136 114 -211 175 -88 71
-133 114 -128 120 5 6 49 26 97 45 112 43 531 253 643 321 47 28 97 58 111 65
15 8 73 46 130 84 57 38 105 70 106 70 1 0 42 -28 91 -62z m-1512 -370 c74
-56 133 -106 131 -111 -3 -9 -223 -88 -312 -112 -27 -7 -99 -28 -160 -45 -60
-18 -148 -40 -195 -50 -47 -10 -128 -27 -180 -39 -139 -29 -318 -60 -386 -65
-32 -3 -124 -11 -204 -20 -80 -8 -179 -17 -220 -21 l-75 -5 -74 74 c-40 41
-71 78 -67 84 3 5 34 12 68 16 102 11 344 52 568 97 201 40 692 191 859 264
42 19 84 34 94 34 10 1 78 -45 153 -101z m-4359 -33 c93 -49 280 -123 531
-211 398 -139 879 -247 1282 -289 286 -29 394 -35 673 -35 l278 0 37 -38 c20
-21 124 -116 230 -211 105 -96 192 -178 192 -182 0 -12 -129 -15 -345 -7 -208
7 -396 25 -600 58 -66 10 -140 21 -165 25 -212 28 -670 155 -980 271 -236 88
-568 246 -800 382 -150 87 -397 252 -378 252 9 0 29 -7 45 -15z m6435 2 c7 -7
37 -30 66 -51 l53 -38 -88 -63 c-102 -73 -366 -239 -502 -315 -108 -61 -433
-219 -503 -245 l-48 -18 -54 44 c-30 24 -55 49 -56 55 0 6 35 25 78 44 240
104 578 292 826 460 91 62 171 118 177 126 14 17 34 18 51 1z m-1690 -264
c324 -241 398 -298 398 -308 0 -11 -211 -89 -415 -155 -174 -55 -552 -147
-675 -164 -19 -3 -109 -16 -200 -30 -202 -31 -534 -61 -554 -49 -16 9 -426
428 -426 436 0 2 33 7 73 11 107 10 341 35 432 47 261 34 770 162 1070 268 77
27 143 49 146 50 4 1 72 -47 151 -106z m-3687 28 c281 -44 384 -52 785 -57
217 -3 442 -2 500 3 58 4 114 7 125 5 11 -1 56 -36 100 -77 l80 -74 -65 -2
c-191 -7 -524 8 -710 31 -41 5 -104 12 -140 15 -95 9 -233 31 -388 64 -75 16
-153 32 -172 35 -68 11 -265 67 -275 77 -7 8 -4 10 10 6 11 -3 79 -15 150 -26z
m4231 -436 c16 -14 44 -35 63 -47 l34 -22 -43 -18 c-114 -49 -407 -148 -565
-192 -133 -37 -407 -99 -535 -121 -123 -21 -504 -63 -648 -71 l-123 -7 -35 34
c-18 18 -34 36 -34 40 0 3 46 9 103 13 112 8 343 36 482 60 50 8 106 17 125
20 128 19 506 114 670 168 164 54 317 109 387 139 38 15 73 29 79 29 6 0 24
-11 40 -25z m-3464 -264 c94 -24 201 -44 403 -76 307 -47 429 -57 781 -62
l340 -5 35 -28 c18 -16 31 -32 26 -36 -10 -10 -346 -6 -497 6 -108 9 -202 19
-420 45 -186 23 -589 111 -750 165 -48 16 7 10 82 -9z"/>
    <path d="M16007 7903 c-62 -143 -146 -368 -139 -374 16 -17 588 -236 595 -229
8 7 167 399 167 411 0 8 -97 49 -115 49 -7 0 -37 -61 -66 -136 -47 -122 -54
-135 -74 -130 -42 11 -95 37 -95 47 0 5 18 56 40 111 22 56 40 105 40 109 0 9
-86 49 -104 49 -6 0 -22 -28 -35 -62 -13 -35 -34 -87 -47 -115 l-23 -53 -47
18 c-25 9 -48 22 -51 28 -2 7 19 69 47 139 28 70 48 130 45 133 -8 8 -98 42
-111 42 -6 0 -18 -17 -27 -37z"/>
    <path d="M15759 7233 c-64 -55 -86 -82 -116 -142 -70 -140 -2 -300 135 -318
65 -9 107 13 203 104 74 69 94 84 117 81 66 -8 22 -117 -79 -195 -32 -26 -59
-49 -59 -52 0 -14 73 -111 84 -111 17 0 97 69 139 120 101 122 123 259 55 345
-49 62 -158 87 -227 51 -19 -10 -68 -54 -111 -97 -82 -85 -118 -100 -140 -59
-19 35 5 84 71 143 32 30 59 58 59 63 0 15 -65 104 -76 104 -6 0 -30 -17 -55
-37z"/>
    <path d="M15385 6625 c-19 -30 -35 -58 -35 -63 0 -5 65 -53 144 -106 79 -52
157 -109 174 -125 61 -62 66 -135 12 -190 -66 -65 -122 -50 -328 87 -83 56
-154 102 -156 102 -12 0 -87 -123 -80 -130 30 -27 297 -197 341 -217 30 -14
81 -27 114 -30 52 -5 66 -2 124 26 116 57 190 196 167 311 -13 62 -65 143
-114 180 -61 45 -312 210 -320 210 -5 0 -24 -25 -43 -55z"/>
    <path d="M14896 5890 c-61 -24 -129 -89 -163 -155 -37 -71 -43 -179 -14 -256
43 -114 160 -203 283 -216 80 -8 180 24 241 77 95 84 132 233 87 352 -26 71
-92 145 -162 183 -71 39 -196 46 -272 15z m179 -141 c56 -26 110 -86 126 -137
17 -58 4 -107 -41 -156 -38 -40 -40 -41 -108 -41 -58 0 -75 4 -110 28 -64 42
-97 99 -97 166 0 69 29 115 89 142 53 24 86 24 141 -2z"/>
    <path d="M14360 5350 l-54 -49 19 -23 c11 -13 49 -54 83 -92 l64 -68 -34 -35
c-18 -19 -59 -58 -92 -86 l-59 -51 -82 89 -82 89 -29 -21 c-16 -12 -42 -35
-58 -52 l-29 -30 164 -178 c90 -97 189 -204 220 -237 l57 -61 50 45 c27 25 50
51 51 58 1 8 -34 52 -76 98 -43 47 -78 90 -78 97 0 13 161 168 173 166 4 0 43
-41 87 -90 44 -49 84 -89 89 -89 17 0 107 83 104 96 -3 14 -418 472 -428 473
-3 0 -30 -22 -60 -49z"/>
    <path d="M6276 4874 c-20 -26 -36 -52 -36 -58 0 -6 32 -33 70 -61 38 -27 70
-55 70 -61 0 -6 -21 -40 -48 -75 -156 -210 -242 -330 -242 -336 1 -11 101 -83
115 -83 6 0 77 90 159 200 81 110 150 200 152 200 3 0 39 -26 80 -57 l75 -57
24 30 c13 16 31 41 39 56 l16 27 -112 84 c-175 129 -302 222 -315 230 -7 5
-25 -10 -47 -39z"/>
    <path d="M13420 4575 c-207 -65 -291 -257 -166 -382 58 -58 92 -62 225 -29 58
14 118 26 133 26 32 0 49 -26 38 -56 -13 -33 -119 -81 -195 -89 l-65 -7 6 -67
c4 -36 10 -70 14 -74 12 -14 139 13 203 42 132 61 201 140 201 230 -1 76 -53
156 -117 180 -45 17 -87 13 -198 -19 -110 -31 -132 -31 -150 1 -24 45 38 92
149 113 l66 12 -3 59 c-1 33 -5 63 -7 67 -8 12 -84 8 -134 -7z"/>
    <path d="M6755 4205 c-113 -200 -154 -279 -146 -288 13 -15 119 -72 124 -66 2
2 29 50 61 106 31 56 61 105 65 108 10 6 211 -106 211 -118 0 -5 -27 -56 -60
-115 -38 -67 -56 -110 -50 -116 13 -15 118 -71 124 -65 2 2 74 127 161 277
111 194 153 277 146 285 -13 16 -119 72 -124 66 -2 -2 -28 -46 -57 -98 -30
-51 -60 -95 -67 -98 -19 -7 -203 99 -203 117 0 8 12 35 26 60 14 25 39 68 55
97 l29 51 -59 36 c-32 20 -63 36 -69 36 -5 0 -80 -124 -167 -275z"/>
    <path d="M12831 4270 c-30 -17 -57 -32 -59 -35 -3 -3 8 -30 23 -60 22 -42 35
-55 52 -55 18 0 25 -8 34 -42 6 -24 13 -46 16 -50 4 -8 78 26 87 40 16 26 -63
232 -89 232 -5 0 -34 -14 -64 -30z"/>
    <path d="M7620 4079 c-32 -59 -240 -564 -237 -573 6 -16 395 -179 410 -173 17
6 51 93 44 110 -3 8 -62 37 -131 66 -90 38 -126 58 -126 70 1 24 38 101 49
101 6 0 50 -17 98 -39 137 -60 127 -60 153 4 12 31 21 58 19 60 -3 2 -52 24
-109 49 -57 24 -106 49 -108 55 -4 13 28 101 37 101 4 0 65 -25 135 -55 71
-30 132 -52 135 -50 3 3 15 29 27 58 17 40 20 55 11 63 -7 6 -95 46 -197 89
-102 43 -188 79 -192 82 -4 2 -12 -6 -18 -18z"/>
    <path d="M12398 4030 c-62 -19 -281 -115 -285 -126 -3 -9 228 -579 241 -591 8
-8 136 50 136 62 0 8 -16 50 -35 96 -19 45 -32 85 -30 89 2 3 22 12 45 20 37
12 42 12 63 -7 12 -10 54 -43 93 -71 l71 -52 77 32 c42 18 76 35 76 38 0 3
-47 41 -105 84 -58 43 -105 80 -105 82 0 3 7 19 17 37 19 37 21 127 3 172 -19
51 -89 114 -144 130 -55 16 -77 17 -118 5z m107 -181 c18 -34 19 -70 3 -92
-12 -15 -118 -67 -137 -67 -9 0 -61 121 -61 143 0 8 28 25 62 39 73 30 109 24
133 -23z"/>
    <path d="M11668 3772 c-108 -31 -199 -60 -203 -64 -8 -7 161 -598 175 -612 9
-9 406 99 424 115 11 10 -10 116 -24 124 -5 3 -65 -10 -132 -29 -171 -48 -158
-49 -174 4 -23 77 -25 75 98 109 61 17 113 33 116 36 5 5 -15 100 -24 117 -2
3 -56 -9 -120 -28 -63 -19 -119 -32 -123 -29 -13 7 -33 97 -24 105 4 4 61 22
127 41 65 19 124 38 132 44 16 13 -15 119 -36 122 -8 1 -104 -23 -212 -55z"/>
    <path d="M8616 3729 c-3 -8 -24 -97 -46 -199 -23 -102 -52 -230 -66 -285 -35
-145 -36 -140 44 -158 37 -9 70 -12 74 -9 4 4 18 55 31 115 13 59 27 111 31
114 4 4 50 -3 104 -15 53 -12 104 -22 113 -22 11 0 20 17 28 56 7 30 10 58 8
61 -3 3 -45 13 -94 24 -137 30 -134 27 -118 94 7 31 14 58 16 60 2 2 62 -10
134 -26 71 -16 134 -28 141 -25 16 6 37 118 23 126 -5 4 -96 26 -202 50 -106
24 -198 45 -204 48 -7 2 -15 -2 -17 -9z"/>
    <path d="M11117 3640 c-20 -4 -40 -10 -44 -13 -3 -4 2 -56 12 -117 10 -65 14
-115 9 -120 -11 -10 -224 -43 -232 -36 -3 3 -13 56 -23 117 -10 61 -20 113
-23 117 -6 6 -135 -14 -144 -23 -3 -3 4 -69 17 -148 12 -78 34 -216 48 -307
14 -91 29 -169 33 -173 8 -9 120 1 138 12 8 5 5 44 -9 130 -11 68 -17 126 -14
129 9 10 236 39 240 31 3 -4 12 -58 21 -121 9 -62 20 -117 24 -121 6 -7 139 9
148 17 3 3 -83 568 -93 614 -6 24 -32 27 -108 12z"/>
    <path d="M9422 3577 c-15 -20 -292 -591 -292 -603 0 -11 66 -24 121 -24 26 0
33 8 62 66 l32 66 90 -7 c50 -4 94 -10 98 -14 5 -5 15 -38 24 -75 16 -73 12
-70 116 -81 31 -4 57 -4 57 0 0 26 -164 653 -173 661 -18 17 -124 25 -135 11z
m78 -296 c11 -52 19 -96 16 -98 -10 -10 -126 9 -126 21 0 16 79 180 85 175 2
-3 13 -47 25 -98z"/>
    <path d="M10200 3550 c-129 -4 -243 -8 -252 -9 -15 -1 -18 -11 -18 -66 l0 -65
94 0 c52 0 97 -4 100 -9 3 -5 9 -120 12 -255 l7 -247 76 3 76 3 0 255 0 255
30 1 c17 1 58 2 93 3 l63 1 -3 68 c-3 59 -5 67 -23 68 -11 0 -126 -3 -255 -6z"/>
  </g>
</svg>
